<mxfile host="app.diagrams.net" modified="2022-07-14T23:43:25.073Z" agent="5.0 (X11)" etag="A1UoUikUDXFGnhsZGoOB" version="20.1.1" type="github">
  <diagram id="yYtagp3hqGqHvnSOxW2J" name="Página-1">
    <mxGraphModel dx="1422" dy="747" grid="1" gridSize="10" guides="1" tooltips="1" connect="1" arrows="1" fold="1" page="1" pageScale="1" pageWidth="827" pageHeight="1169" math="0" shadow="0">
      <root>
        <mxCell id="0" />
        <mxCell id="1" parent="0" />
        <mxCell id="2tgwnuUrrpTe56F5n8lB-22" value="" style="edgeStyle=orthogonalEdgeStyle;rounded=0;orthogonalLoop=1;jettySize=auto;html=1;fontColor=#B09500;fillColor=#e3c800;strokeColor=#B09500;" parent="1" source="zi-uQG6dIvawqaSI3qxy-1" target="2tgwnuUrrpTe56F5n8lB-21" edge="1">
          <mxGeometry relative="1" as="geometry">
            <Array as="points">
              <mxPoint x="760" y="510" />
              <mxPoint x="760" y="510" />
            </Array>
          </mxGeometry>
        </mxCell>
        <mxCell id="zi-uQG6dIvawqaSI3qxy-1" value="Usuario" style="swimlane;fontStyle=1;align=center;verticalAlign=top;childLayout=stackLayout;horizontal=1;startSize=26;horizontalStack=0;resizeParent=1;resizeParentMax=0;resizeLast=0;collapsible=1;marginBottom=0;fillColor=#e3c800;fontColor=#000000;strokeColor=#B09500;" parent="1" vertex="1">
          <mxGeometry x="665" width="280" height="476" as="geometry" />
        </mxCell>
        <mxCell id="zi-uQG6dIvawqaSI3qxy-2" value="- uuid: UUID" style="text;strokeColor=none;fillColor=none;align=left;verticalAlign=top;spacingLeft=4;spacingRight=4;overflow=hidden;rotatable=0;points=[[0,0.5],[1,0.5]];portConstraint=eastwest;fontColor=#B09500;" parent="zi-uQG6dIvawqaSI3qxy-1" vertex="1">
          <mxGeometry y="26" width="280" height="26" as="geometry" />
        </mxCell>
        <mxCell id="zi-uQG6dIvawqaSI3qxy-6" value="- email: String" style="text;strokeColor=none;fillColor=none;align=left;verticalAlign=top;spacingLeft=4;spacingRight=4;overflow=hidden;rotatable=0;points=[[0,0.5],[1,0.5]];portConstraint=eastwest;fontColor=#B09500;" parent="zi-uQG6dIvawqaSI3qxy-1" vertex="1">
          <mxGeometry y="52" width="280" height="26" as="geometry" />
        </mxCell>
        <mxCell id="zi-uQG6dIvawqaSI3qxy-7" value="- senha: String" style="text;strokeColor=none;fillColor=none;align=left;verticalAlign=top;spacingLeft=4;spacingRight=4;overflow=hidden;rotatable=0;points=[[0,0.5],[1,0.5]];portConstraint=eastwest;fontColor=#B09500;" parent="zi-uQG6dIvawqaSI3qxy-1" vertex="1">
          <mxGeometry y="78" width="280" height="26" as="geometry" />
        </mxCell>
        <mxCell id="zi-uQG6dIvawqaSI3qxy-5" value="- nome: String" style="text;strokeColor=none;fillColor=none;align=left;verticalAlign=top;spacingLeft=4;spacingRight=4;overflow=hidden;rotatable=0;points=[[0,0.5],[1,0.5]];portConstraint=eastwest;fontColor=#B09500;" parent="zi-uQG6dIvawqaSI3qxy-1" vertex="1">
          <mxGeometry y="104" width="280" height="26" as="geometry" />
        </mxCell>
        <mxCell id="zi-uQG6dIvawqaSI3qxy-8" value="- biografia: String " style="text;strokeColor=none;fillColor=none;align=left;verticalAlign=top;spacingLeft=4;spacingRight=4;overflow=hidden;rotatable=0;points=[[0,0.5],[1,0.5]];portConstraint=eastwest;fontColor=#B09500;" parent="zi-uQG6dIvawqaSI3qxy-1" vertex="1">
          <mxGeometry y="130" width="280" height="26" as="geometry" />
        </mxCell>
        <mxCell id="zi-uQG6dIvawqaSI3qxy-9" value="- dataRegistro: DateTime" style="text;strokeColor=none;fillColor=none;align=left;verticalAlign=top;spacingLeft=4;spacingRight=4;overflow=hidden;rotatable=0;points=[[0,0.5],[1,0.5]];portConstraint=eastwest;fontColor=#B09500;" parent="zi-uQG6dIvawqaSI3qxy-1" vertex="1">
          <mxGeometry y="156" width="280" height="26" as="geometry" />
        </mxCell>
        <mxCell id="zi-uQG6dIvawqaSI3qxy-3" value="" style="line;strokeWidth=1;fillColor=#e3c800;align=left;verticalAlign=middle;spacingTop=-1;spacingLeft=3;spacingRight=3;rotatable=0;labelPosition=right;points=[];portConstraint=eastwest;fontColor=#000000;strokeColor=#B09500;" parent="zi-uQG6dIvawqaSI3qxy-1" vertex="1">
          <mxGeometry y="182" width="280" height="8" as="geometry" />
        </mxCell>
        <mxCell id="zi-uQG6dIvawqaSI3qxy-4" value="+ getUUID(): UUID" style="text;strokeColor=none;fillColor=none;align=left;verticalAlign=top;spacingLeft=4;spacingRight=4;overflow=hidden;rotatable=0;points=[[0,0.5],[1,0.5]];portConstraint=eastwest;fontColor=#B09500;" parent="zi-uQG6dIvawqaSI3qxy-1" vertex="1">
          <mxGeometry y="190" width="280" height="26" as="geometry" />
        </mxCell>
        <mxCell id="zi-uQG6dIvawqaSI3qxy-10" value="+ getEmail(): String" style="text;strokeColor=none;fillColor=none;align=left;verticalAlign=top;spacingLeft=4;spacingRight=4;overflow=hidden;rotatable=0;points=[[0,0.5],[1,0.5]];portConstraint=eastwest;fontColor=#B09500;" parent="zi-uQG6dIvawqaSI3qxy-1" vertex="1">
          <mxGeometry y="216" width="280" height="26" as="geometry" />
        </mxCell>
        <mxCell id="zi-uQG6dIvawqaSI3qxy-11" value="+ setEmail(email: String): void" style="text;strokeColor=none;fillColor=none;align=left;verticalAlign=top;spacingLeft=4;spacingRight=4;overflow=hidden;rotatable=0;points=[[0,0.5],[1,0.5]];portConstraint=eastwest;fontColor=#B09500;" parent="zi-uQG6dIvawqaSI3qxy-1" vertex="1">
          <mxGeometry y="242" width="280" height="26" as="geometry" />
        </mxCell>
        <mxCell id="zi-uQG6dIvawqaSI3qxy-13" value="+ getSenha(): String" style="text;strokeColor=none;fillColor=none;align=left;verticalAlign=top;spacingLeft=4;spacingRight=4;overflow=hidden;rotatable=0;points=[[0,0.5],[1,0.5]];portConstraint=eastwest;fontColor=#B09500;" parent="zi-uQG6dIvawqaSI3qxy-1" vertex="1">
          <mxGeometry y="268" width="280" height="26" as="geometry" />
        </mxCell>
        <mxCell id="zi-uQG6dIvawqaSI3qxy-12" value="+ setSenha(senha: String): void" style="text;strokeColor=none;fillColor=none;align=left;verticalAlign=top;spacingLeft=4;spacingRight=4;overflow=hidden;rotatable=0;points=[[0,0.5],[1,0.5]];portConstraint=eastwest;fontColor=#B09500;" parent="zi-uQG6dIvawqaSI3qxy-1" vertex="1">
          <mxGeometry y="294" width="280" height="26" as="geometry" />
        </mxCell>
        <mxCell id="zi-uQG6dIvawqaSI3qxy-14" value="+ getNome(): String" style="text;strokeColor=none;fillColor=none;align=left;verticalAlign=top;spacingLeft=4;spacingRight=4;overflow=hidden;rotatable=0;points=[[0,0.5],[1,0.5]];portConstraint=eastwest;fontColor=#B09500;" parent="zi-uQG6dIvawqaSI3qxy-1" vertex="1">
          <mxGeometry y="320" width="280" height="26" as="geometry" />
        </mxCell>
        <mxCell id="zi-uQG6dIvawqaSI3qxy-15" value="+ setNome(nome: String): void" style="text;strokeColor=none;fillColor=none;align=left;verticalAlign=top;spacingLeft=4;spacingRight=4;overflow=hidden;rotatable=0;points=[[0,0.5],[1,0.5]];portConstraint=eastwest;fontColor=#B09500;" parent="zi-uQG6dIvawqaSI3qxy-1" vertex="1">
          <mxGeometry y="346" width="280" height="26" as="geometry" />
        </mxCell>
        <mxCell id="zi-uQG6dIvawqaSI3qxy-16" value="+ getBiografia(): String" style="text;strokeColor=none;fillColor=none;align=left;verticalAlign=top;spacingLeft=4;spacingRight=4;overflow=hidden;rotatable=0;points=[[0,0.5],[1,0.5]];portConstraint=eastwest;fontColor=#B09500;" parent="zi-uQG6dIvawqaSI3qxy-1" vertex="1">
          <mxGeometry y="372" width="280" height="26" as="geometry" />
        </mxCell>
        <mxCell id="zi-uQG6dIvawqaSI3qxy-17" value="+ setBiografia(biografia: String): void" style="text;strokeColor=none;fillColor=none;align=left;verticalAlign=top;spacingLeft=4;spacingRight=4;overflow=hidden;rotatable=0;points=[[0,0.5],[1,0.5]];portConstraint=eastwest;fontColor=#B09500;" parent="zi-uQG6dIvawqaSI3qxy-1" vertex="1">
          <mxGeometry y="398" width="280" height="26" as="geometry" />
        </mxCell>
        <mxCell id="zi-uQG6dIvawqaSI3qxy-18" value="+ getDataRegistro(): DateTime" style="text;strokeColor=none;fillColor=none;align=left;verticalAlign=top;spacingLeft=4;spacingRight=4;overflow=hidden;rotatable=0;points=[[0,0.5],[1,0.5]];portConstraint=eastwest;fontColor=#B09500;" parent="zi-uQG6dIvawqaSI3qxy-1" vertex="1">
          <mxGeometry y="424" width="280" height="26" as="geometry" />
        </mxCell>
        <mxCell id="zi-uQG6dIvawqaSI3qxy-19" value="+ setDataRegistro(dataRegistro: DateTime): void" style="text;strokeColor=none;fillColor=none;align=left;verticalAlign=top;spacingLeft=4;spacingRight=4;overflow=hidden;rotatable=0;points=[[0,0.5],[1,0.5]];portConstraint=eastwest;fontColor=#B09500;" parent="zi-uQG6dIvawqaSI3qxy-1" vertex="1">
          <mxGeometry y="450" width="280" height="26" as="geometry" />
        </mxCell>
        <mxCell id="2tgwnuUrrpTe56F5n8lB-18" style="edgeStyle=orthogonalEdgeStyle;rounded=0;orthogonalLoop=1;jettySize=auto;html=1;fontColor=#B09500;fillColor=#e3c800;strokeColor=#B09500;entryX=1;entryY=0.5;entryDx=0;entryDy=0;" parent="1" source="zi-uQG6dIvawqaSI3qxy-20" target="2tgwnuUrrpTe56F5n8lB-15" edge="1">
          <mxGeometry relative="1" as="geometry">
            <Array as="points">
              <mxPoint x="1100" y="480" />
              <mxPoint x="1100" y="480" />
            </Array>
          </mxGeometry>
        </mxCell>
        <mxCell id="zi-uQG6dIvawqaSI3qxy-20" value="Livro" style="swimlane;fontStyle=1;align=center;verticalAlign=top;childLayout=stackLayout;horizontal=1;startSize=26;horizontalStack=0;resizeParent=1;resizeParentMax=0;resizeLast=0;collapsible=1;marginBottom=0;fillColor=#e3c800;fontColor=#000000;strokeColor=#B09500;" parent="1" vertex="1">
          <mxGeometry x="1300" y="340" width="300" height="528" as="geometry" />
        </mxCell>
        <mxCell id="zi-uQG6dIvawqaSI3qxy-103" value="- titulo: String " style="text;strokeColor=none;fillColor=none;align=left;verticalAlign=top;spacingLeft=4;spacingRight=4;overflow=hidden;rotatable=0;points=[[0,0.5],[1,0.5]];portConstraint=eastwest;fontColor=#B09500;" parent="zi-uQG6dIvawqaSI3qxy-20" vertex="1">
          <mxGeometry y="26" width="300" height="26" as="geometry" />
        </mxCell>
        <mxCell id="zi-uQG6dIvawqaSI3qxy-23" value="- subtitulo: String" style="text;strokeColor=none;fillColor=none;align=left;verticalAlign=top;spacingLeft=4;spacingRight=4;overflow=hidden;rotatable=0;points=[[0,0.5],[1,0.5]];portConstraint=eastwest;fontColor=#B09500;" parent="zi-uQG6dIvawqaSI3qxy-20" vertex="1">
          <mxGeometry y="52" width="300" height="26" as="geometry" />
        </mxCell>
        <mxCell id="zi-uQG6dIvawqaSI3qxy-24" value="- serie: String" style="text;strokeColor=none;fillColor=none;align=left;verticalAlign=top;spacingLeft=4;spacingRight=4;overflow=hidden;rotatable=0;points=[[0,0.5],[1,0.5]];portConstraint=eastwest;fontColor=#B09500;" parent="zi-uQG6dIvawqaSI3qxy-20" vertex="1">
          <mxGeometry y="78" width="300" height="26" as="geometry" />
        </mxCell>
        <mxCell id="zi-uQG6dIvawqaSI3qxy-26" value="- dataRegistro: DateTime" style="text;strokeColor=none;fillColor=none;align=left;verticalAlign=top;spacingLeft=4;spacingRight=4;overflow=hidden;rotatable=0;points=[[0,0.5],[1,0.5]];portConstraint=eastwest;fontColor=#B09500;" parent="zi-uQG6dIvawqaSI3qxy-20" vertex="1">
          <mxGeometry y="104" width="300" height="26" as="geometry" />
        </mxCell>
        <mxCell id="zi-uQG6dIvawqaSI3qxy-59" value="- listaAutores: List&lt;Autor&gt;" style="text;strokeColor=none;fillColor=none;align=left;verticalAlign=top;spacingLeft=4;spacingRight=4;overflow=hidden;rotatable=0;points=[[0,0.5],[1,0.5]];portConstraint=eastwest;fontColor=#B09500;" parent="zi-uQG6dIvawqaSI3qxy-20" vertex="1">
          <mxGeometry y="130" width="300" height="26" as="geometry" />
        </mxCell>
        <mxCell id="2tgwnuUrrpTe56F5n8lB-1" value="- listaCapitulos: List&lt;Capitulo&gt;" style="text;strokeColor=none;fillColor=none;align=left;verticalAlign=top;spacingLeft=4;spacingRight=4;overflow=hidden;rotatable=0;points=[[0,0.5],[1,0.5]];portConstraint=eastwest;fontColor=#B09500;" parent="zi-uQG6dIvawqaSI3qxy-20" vertex="1">
          <mxGeometry y="156" width="300" height="26" as="geometry" />
        </mxCell>
        <mxCell id="zi-uQG6dIvawqaSI3qxy-27" value="" style="line;strokeWidth=1;fillColor=#e3c800;align=left;verticalAlign=middle;spacingTop=-1;spacingLeft=3;spacingRight=3;rotatable=0;labelPosition=right;points=[];portConstraint=eastwest;fontColor=#000000;strokeColor=#B09500;" parent="zi-uQG6dIvawqaSI3qxy-20" vertex="1">
          <mxGeometry y="182" width="300" height="8" as="geometry" />
        </mxCell>
        <mxCell id="zi-uQG6dIvawqaSI3qxy-28" value="+ getUUID(): UUID" style="text;strokeColor=none;fillColor=none;align=left;verticalAlign=top;spacingLeft=4;spacingRight=4;overflow=hidden;rotatable=0;points=[[0,0.5],[1,0.5]];portConstraint=eastwest;fontColor=#B09500;" parent="zi-uQG6dIvawqaSI3qxy-20" vertex="1">
          <mxGeometry y="190" width="300" height="26" as="geometry" />
        </mxCell>
        <mxCell id="zi-uQG6dIvawqaSI3qxy-106" value="+ getTitulo(): String" style="text;strokeColor=none;fillColor=none;align=left;verticalAlign=top;spacingLeft=4;spacingRight=4;overflow=hidden;rotatable=0;points=[[0,0.5],[1,0.5]];portConstraint=eastwest;fontColor=#B09500;" parent="zi-uQG6dIvawqaSI3qxy-20" vertex="1">
          <mxGeometry y="216" width="300" height="26" as="geometry" />
        </mxCell>
        <mxCell id="zi-uQG6dIvawqaSI3qxy-107" value="+ setTitulo(titulo: String): void" style="text;strokeColor=none;fillColor=none;align=left;verticalAlign=top;spacingLeft=4;spacingRight=4;overflow=hidden;rotatable=0;points=[[0,0.5],[1,0.5]];portConstraint=eastwest;fontColor=#B09500;" parent="zi-uQG6dIvawqaSI3qxy-20" vertex="1">
          <mxGeometry y="242" width="300" height="26" as="geometry" />
        </mxCell>
        <mxCell id="zi-uQG6dIvawqaSI3qxy-31" value="+ getSubTitulo(): String" style="text;strokeColor=none;fillColor=none;align=left;verticalAlign=top;spacingLeft=4;spacingRight=4;overflow=hidden;rotatable=0;points=[[0,0.5],[1,0.5]];portConstraint=eastwest;fontColor=#B09500;" parent="zi-uQG6dIvawqaSI3qxy-20" vertex="1">
          <mxGeometry y="268" width="300" height="26" as="geometry" />
        </mxCell>
        <mxCell id="zi-uQG6dIvawqaSI3qxy-32" value="+ setSubTitulo(subTitulo: String): void" style="text;strokeColor=none;fillColor=none;align=left;verticalAlign=top;spacingLeft=4;spacingRight=4;overflow=hidden;rotatable=0;points=[[0,0.5],[1,0.5]];portConstraint=eastwest;fontColor=#B09500;" parent="zi-uQG6dIvawqaSI3qxy-20" vertex="1">
          <mxGeometry y="294" width="300" height="26" as="geometry" />
        </mxCell>
        <mxCell id="zi-uQG6dIvawqaSI3qxy-33" value="+ getSerie(): String" style="text;strokeColor=none;fillColor=none;align=left;verticalAlign=top;spacingLeft=4;spacingRight=4;overflow=hidden;rotatable=0;points=[[0,0.5],[1,0.5]];portConstraint=eastwest;fontColor=#B09500;" parent="zi-uQG6dIvawqaSI3qxy-20" vertex="1">
          <mxGeometry y="320" width="300" height="26" as="geometry" />
        </mxCell>
        <mxCell id="zi-uQG6dIvawqaSI3qxy-34" value="+ setSerie(serie: String): void" style="text;strokeColor=none;fillColor=none;align=left;verticalAlign=top;spacingLeft=4;spacingRight=4;overflow=hidden;rotatable=0;points=[[0,0.5],[1,0.5]];portConstraint=eastwest;fontColor=#B09500;" parent="zi-uQG6dIvawqaSI3qxy-20" vertex="1">
          <mxGeometry y="346" width="300" height="26" as="geometry" />
        </mxCell>
        <mxCell id="zi-uQG6dIvawqaSI3qxy-37" value="+ getDataRegistro(): DateTime" style="text;strokeColor=none;fillColor=none;align=left;verticalAlign=top;spacingLeft=4;spacingRight=4;overflow=hidden;rotatable=0;points=[[0,0.5],[1,0.5]];portConstraint=eastwest;fontColor=#B09500;" parent="zi-uQG6dIvawqaSI3qxy-20" vertex="1">
          <mxGeometry y="372" width="300" height="26" as="geometry" />
        </mxCell>
        <mxCell id="zi-uQG6dIvawqaSI3qxy-38" value="+ setDataRegistro(dataRegistro: DateTime): void" style="text;strokeColor=none;fillColor=none;align=left;verticalAlign=top;spacingLeft=4;spacingRight=4;overflow=hidden;rotatable=0;points=[[0,0.5],[1,0.5]];portConstraint=eastwest;fontColor=#B09500;" parent="zi-uQG6dIvawqaSI3qxy-20" vertex="1">
          <mxGeometry y="398" width="300" height="26" as="geometry" />
        </mxCell>
        <mxCell id="zi-uQG6dIvawqaSI3qxy-60" value="+ getListaAutores(): DateTime" style="text;strokeColor=none;fillColor=none;align=left;verticalAlign=top;spacingLeft=4;spacingRight=4;overflow=hidden;rotatable=0;points=[[0,0.5],[1,0.5]];portConstraint=eastwest;fontColor=#B09500;" parent="zi-uQG6dIvawqaSI3qxy-20" vertex="1">
          <mxGeometry y="424" width="300" height="26" as="geometry" />
        </mxCell>
        <mxCell id="2tgwnuUrrpTe56F5n8lB-3" value="+ setListaAutores(listaAutores: List&lt;Autor&gt;): void" style="text;strokeColor=none;fillColor=none;align=left;verticalAlign=top;spacingLeft=4;spacingRight=4;overflow=hidden;rotatable=0;points=[[0,0.5],[1,0.5]];portConstraint=eastwest;fontColor=#B09500;" parent="zi-uQG6dIvawqaSI3qxy-20" vertex="1">
          <mxGeometry y="450" width="300" height="26" as="geometry" />
        </mxCell>
        <mxCell id="2tgwnuUrrpTe56F5n8lB-2" value="+ getListaCapitulo(): DateTime" style="text;strokeColor=none;fillColor=none;align=left;verticalAlign=top;spacingLeft=4;spacingRight=4;overflow=hidden;rotatable=0;points=[[0,0.5],[1,0.5]];portConstraint=eastwest;fontColor=#B09500;" parent="zi-uQG6dIvawqaSI3qxy-20" vertex="1">
          <mxGeometry y="476" width="300" height="26" as="geometry" />
        </mxCell>
        <mxCell id="zi-uQG6dIvawqaSI3qxy-61" value="+ setListaCapitulo(listaCapitulo: List&lt;Capitulo&gt;): void" style="text;strokeColor=none;fillColor=none;align=left;verticalAlign=top;spacingLeft=4;spacingRight=4;overflow=hidden;rotatable=0;points=[[0,0.5],[1,0.5]];portConstraint=eastwest;fontColor=#B09500;" parent="zi-uQG6dIvawqaSI3qxy-20" vertex="1">
          <mxGeometry y="502" width="300" height="26" as="geometry" />
        </mxCell>
        <mxCell id="zi-uQG6dIvawqaSI3qxy-86" style="edgeStyle=orthogonalEdgeStyle;rounded=0;orthogonalLoop=1;jettySize=auto;html=1;strokeColor=#B09500;fillColor=#e3c800;" parent="1" source="zi-uQG6dIvawqaSI3qxy-62" target="zi-uQG6dIvawqaSI3qxy-85" edge="1">
          <mxGeometry relative="1" as="geometry" />
        </mxCell>
        <mxCell id="zi-uQG6dIvawqaSI3qxy-62" value="Autor" style="swimlane;fontStyle=1;align=center;verticalAlign=top;childLayout=stackLayout;horizontal=1;startSize=26;horizontalStack=0;resizeParent=1;resizeParentMax=0;resizeLast=0;collapsible=1;marginBottom=0;fillColor=#e3c800;fontColor=#000000;strokeColor=#B09500;" parent="1" vertex="1">
          <mxGeometry x="1070" y="880" width="280" height="242" as="geometry" />
        </mxCell>
        <mxCell id="zi-uQG6dIvawqaSI3qxy-63" value="- uuid: UUID" style="text;strokeColor=none;fillColor=none;align=left;verticalAlign=top;spacingLeft=4;spacingRight=4;overflow=hidden;rotatable=0;points=[[0,0.5],[1,0.5]];portConstraint=eastwest;fontColor=#B09500;" parent="zi-uQG6dIvawqaSI3qxy-62" vertex="1">
          <mxGeometry y="26" width="280" height="26" as="geometry" />
        </mxCell>
        <mxCell id="zi-uQG6dIvawqaSI3qxy-64" value="- nome: String" style="text;strokeColor=none;fillColor=none;align=left;verticalAlign=top;spacingLeft=4;spacingRight=4;overflow=hidden;rotatable=0;points=[[0,0.5],[1,0.5]];portConstraint=eastwest;fontColor=#B09500;" parent="zi-uQG6dIvawqaSI3qxy-62" vertex="1">
          <mxGeometry y="52" width="280" height="26" as="geometry" />
        </mxCell>
        <mxCell id="zi-uQG6dIvawqaSI3qxy-65" value="- sobrenome: String" style="text;strokeColor=none;fillColor=none;align=left;verticalAlign=top;spacingLeft=4;spacingRight=4;overflow=hidden;rotatable=0;points=[[0,0.5],[1,0.5]];portConstraint=eastwest;fontColor=#B09500;" parent="zi-uQG6dIvawqaSI3qxy-62" vertex="1">
          <mxGeometry y="78" width="280" height="26" as="geometry" />
        </mxCell>
        <mxCell id="zi-uQG6dIvawqaSI3qxy-70" value="" style="line;strokeWidth=1;fillColor=#e3c800;align=left;verticalAlign=middle;spacingTop=-1;spacingLeft=3;spacingRight=3;rotatable=0;labelPosition=right;points=[];portConstraint=eastwest;fontColor=#000000;strokeColor=#B09500;" parent="zi-uQG6dIvawqaSI3qxy-62" vertex="1">
          <mxGeometry y="104" width="280" height="8" as="geometry" />
        </mxCell>
        <mxCell id="zi-uQG6dIvawqaSI3qxy-71" value="+ getUUID(): UUID" style="text;strokeColor=none;fillColor=none;align=left;verticalAlign=top;spacingLeft=4;spacingRight=4;overflow=hidden;rotatable=0;points=[[0,0.5],[1,0.5]];portConstraint=eastwest;fontColor=#B09500;" parent="zi-uQG6dIvawqaSI3qxy-62" vertex="1">
          <mxGeometry y="112" width="280" height="26" as="geometry" />
        </mxCell>
        <mxCell id="zi-uQG6dIvawqaSI3qxy-72" value="+ getNome(): String" style="text;strokeColor=none;fillColor=none;align=left;verticalAlign=top;spacingLeft=4;spacingRight=4;overflow=hidden;rotatable=0;points=[[0,0.5],[1,0.5]];portConstraint=eastwest;fontColor=#B09500;" parent="zi-uQG6dIvawqaSI3qxy-62" vertex="1">
          <mxGeometry y="138" width="280" height="26" as="geometry" />
        </mxCell>
        <mxCell id="zi-uQG6dIvawqaSI3qxy-73" value="+ setNome(nome: String): void" style="text;strokeColor=none;fillColor=none;align=left;verticalAlign=top;spacingLeft=4;spacingRight=4;overflow=hidden;rotatable=0;points=[[0,0.5],[1,0.5]];portConstraint=eastwest;fontColor=#B09500;" parent="zi-uQG6dIvawqaSI3qxy-62" vertex="1">
          <mxGeometry y="164" width="280" height="26" as="geometry" />
        </mxCell>
        <mxCell id="zi-uQG6dIvawqaSI3qxy-74" value="+ getSobreNome(): String" style="text;strokeColor=none;fillColor=none;align=left;verticalAlign=top;spacingLeft=4;spacingRight=4;overflow=hidden;rotatable=0;points=[[0,0.5],[1,0.5]];portConstraint=eastwest;fontColor=#B09500;" parent="zi-uQG6dIvawqaSI3qxy-62" vertex="1">
          <mxGeometry y="190" width="280" height="26" as="geometry" />
        </mxCell>
        <mxCell id="zi-uQG6dIvawqaSI3qxy-75" value="+ setSobreNome(sobreNome: String): void" style="text;strokeColor=none;fillColor=none;align=left;verticalAlign=top;spacingLeft=4;spacingRight=4;overflow=hidden;rotatable=0;points=[[0,0.5],[1,0.5]];portConstraint=eastwest;fontColor=#B09500;" parent="zi-uQG6dIvawqaSI3qxy-62" vertex="1">
          <mxGeometry y="216" width="280" height="26" as="geometry" />
        </mxCell>
        <mxCell id="zi-uQG6dIvawqaSI3qxy-87" style="edgeStyle=orthogonalEdgeStyle;rounded=0;orthogonalLoop=1;jettySize=auto;html=1;fillColor=#e3c800;strokeColor=#B09500;" parent="1" source="zi-uQG6dIvawqaSI3qxy-85" target="zi-uQG6dIvawqaSI3qxy-20" edge="1">
          <mxGeometry relative="1" as="geometry">
            <Array as="points">
              <mxPoint x="1280" y="660" />
              <mxPoint x="1280" y="660" />
            </Array>
          </mxGeometry>
        </mxCell>
        <mxCell id="zi-uQG6dIvawqaSI3qxy-85" value="escreve" style="rhombus;whiteSpace=wrap;html=1;fillColor=#e3c800;fontColor=#000000;strokeColor=#B09500;" parent="1" vertex="1">
          <mxGeometry x="1170" y="620" width="80" height="80" as="geometry" />
        </mxCell>
        <mxCell id="zi-uQG6dIvawqaSI3qxy-122" value="" style="edgeStyle=orthogonalEdgeStyle;rounded=0;orthogonalLoop=1;jettySize=auto;html=1;fontColor=#B09500;strokeColor=#B09500;fillColor=#e3c800;" parent="1" source="zi-uQG6dIvawqaSI3qxy-88" target="zi-uQG6dIvawqaSI3qxy-121" edge="1">
          <mxGeometry relative="1" as="geometry" />
        </mxCell>
        <mxCell id="zi-uQG6dIvawqaSI3qxy-88" value="Categoria" style="swimlane;fontStyle=1;align=center;verticalAlign=top;childLayout=stackLayout;horizontal=1;startSize=26;horizontalStack=0;resizeParent=1;resizeParentMax=0;resizeLast=0;collapsible=1;marginBottom=0;fillColor=#e3c800;fontColor=#000000;strokeColor=#B09500;" parent="1" vertex="1">
          <mxGeometry x="1050" width="180" height="164" as="geometry" />
        </mxCell>
        <mxCell id="zi-uQG6dIvawqaSI3qxy-89" value="- uuid: UUID" style="text;strokeColor=none;fillColor=none;align=left;verticalAlign=top;spacingLeft=4;spacingRight=4;overflow=hidden;rotatable=0;points=[[0,0.5],[1,0.5]];portConstraint=eastwest;fontColor=#B09500;" parent="zi-uQG6dIvawqaSI3qxy-88" vertex="1">
          <mxGeometry y="26" width="180" height="26" as="geometry" />
        </mxCell>
        <mxCell id="zi-uQG6dIvawqaSI3qxy-93" value="- tema: String " style="text;strokeColor=none;fillColor=none;align=left;verticalAlign=top;spacingLeft=4;spacingRight=4;overflow=hidden;rotatable=0;points=[[0,0.5],[1,0.5]];portConstraint=eastwest;fontColor=#B09500;" parent="zi-uQG6dIvawqaSI3qxy-88" vertex="1">
          <mxGeometry y="52" width="180" height="26" as="geometry" />
        </mxCell>
        <mxCell id="zi-uQG6dIvawqaSI3qxy-90" value="" style="line;strokeWidth=1;fillColor=#e3c800;align=left;verticalAlign=middle;spacingTop=-1;spacingLeft=3;spacingRight=3;rotatable=0;labelPosition=right;points=[];portConstraint=eastwest;fontColor=#000000;strokeColor=#B09500;" parent="zi-uQG6dIvawqaSI3qxy-88" vertex="1">
          <mxGeometry y="78" width="180" height="8" as="geometry" />
        </mxCell>
        <mxCell id="zi-uQG6dIvawqaSI3qxy-91" value="+ getUUID(): UUID" style="text;strokeColor=none;fillColor=none;align=left;verticalAlign=top;spacingLeft=4;spacingRight=4;overflow=hidden;rotatable=0;points=[[0,0.5],[1,0.5]];portConstraint=eastwest;fontColor=#B09500;" parent="zi-uQG6dIvawqaSI3qxy-88" vertex="1">
          <mxGeometry y="86" width="180" height="26" as="geometry" />
        </mxCell>
        <mxCell id="zi-uQG6dIvawqaSI3qxy-95" value="+ getTema(): String" style="text;strokeColor=none;fillColor=none;align=left;verticalAlign=top;spacingLeft=4;spacingRight=4;overflow=hidden;rotatable=0;points=[[0,0.5],[1,0.5]];portConstraint=eastwest;fontColor=#B09500;" parent="zi-uQG6dIvawqaSI3qxy-88" vertex="1">
          <mxGeometry y="112" width="180" height="26" as="geometry" />
        </mxCell>
        <mxCell id="zi-uQG6dIvawqaSI3qxy-97" value="+ setTema(tema: String): void" style="text;strokeColor=none;fillColor=none;align=left;verticalAlign=top;spacingLeft=4;spacingRight=4;overflow=hidden;rotatable=0;points=[[0,0.5],[1,0.5]];portConstraint=eastwest;fontColor=#B09500;" parent="zi-uQG6dIvawqaSI3qxy-88" vertex="1">
          <mxGeometry y="138" width="180" height="26" as="geometry" />
        </mxCell>
        <mxCell id="zi-uQG6dIvawqaSI3qxy-100" value="" style="edgeStyle=orthogonalEdgeStyle;rounded=0;orthogonalLoop=1;jettySize=auto;html=1;fontColor=#B09500;strokeColor=#B09500;fillColor=#e3c800;" parent="1" source="zi-uQG6dIvawqaSI3qxy-98" target="zi-uQG6dIvawqaSI3qxy-88" edge="1">
          <mxGeometry relative="1" as="geometry">
            <mxPoint x="494" y="229" as="targetPoint" />
          </mxGeometry>
        </mxCell>
        <mxCell id="zi-uQG6dIvawqaSI3qxy-98" value="Acessa" style="rhombus;whiteSpace=wrap;html=1;fontColor=#000000;fillColor=#e3c800;strokeColor=#B09500;" parent="1" vertex="1">
          <mxGeometry x="1105" y="220" width="70" height="70" as="geometry" />
        </mxCell>
        <mxCell id="zi-uQG6dIvawqaSI3qxy-99" style="edgeStyle=orthogonalEdgeStyle;rounded=0;orthogonalLoop=1;jettySize=auto;html=1;entryX=0;entryY=0.5;entryDx=0;entryDy=0;fontColor=#B09500;strokeColor=#B09500;fillColor=#e3c800;" parent="1" source="zi-uQG6dIvawqaSI3qxy-11" target="zi-uQG6dIvawqaSI3qxy-98" edge="1">
          <mxGeometry relative="1" as="geometry" />
        </mxCell>
        <mxCell id="zi-uQG6dIvawqaSI3qxy-101" value="Tipo" style="swimlane;fontStyle=1;align=center;verticalAlign=top;childLayout=stackLayout;horizontal=1;startSize=26;horizontalStack=0;resizeParent=1;resizeParentMax=0;resizeLast=0;collapsible=1;marginBottom=0;fillColor=#e3c800;fontColor=#000000;strokeColor=#B09500;" parent="1" vertex="1">
          <mxGeometry x="1440" width="213" height="242" as="geometry" />
        </mxCell>
        <mxCell id="zi-uQG6dIvawqaSI3qxy-102" value="- uuid: UUID" style="text;strokeColor=none;fillColor=none;align=left;verticalAlign=top;spacingLeft=4;spacingRight=4;overflow=hidden;rotatable=0;points=[[0,0.5],[1,0.5]];portConstraint=eastwest;fontColor=#B09500;" parent="zi-uQG6dIvawqaSI3qxy-101" vertex="1">
          <mxGeometry y="26" width="213" height="26" as="geometry" />
        </mxCell>
        <mxCell id="zi-uQG6dIvawqaSI3qxy-110" value="- editora: String " style="text;strokeColor=none;fillColor=none;align=left;verticalAlign=top;spacingLeft=4;spacingRight=4;overflow=hidden;rotatable=0;points=[[0,0.5],[1,0.5]];portConstraint=eastwest;fontColor=#B09500;" parent="zi-uQG6dIvawqaSI3qxy-101" vertex="1">
          <mxGeometry y="52" width="213" height="26" as="geometry" />
        </mxCell>
        <mxCell id="zi-uQG6dIvawqaSI3qxy-25" value="- edicao: String " style="text;strokeColor=none;fillColor=none;align=left;verticalAlign=top;spacingLeft=4;spacingRight=4;overflow=hidden;rotatable=0;points=[[0,0.5],[1,0.5]];portConstraint=eastwest;fontColor=#B09500;" parent="zi-uQG6dIvawqaSI3qxy-101" vertex="1">
          <mxGeometry y="78" width="213" height="26" as="geometry" />
        </mxCell>
        <mxCell id="zi-uQG6dIvawqaSI3qxy-104" value="" style="line;strokeWidth=1;fillColor=#e3c800;align=left;verticalAlign=middle;spacingTop=-1;spacingLeft=3;spacingRight=3;rotatable=0;labelPosition=right;points=[];portConstraint=eastwest;fontColor=#000000;strokeColor=#B09500;" parent="zi-uQG6dIvawqaSI3qxy-101" vertex="1">
          <mxGeometry y="104" width="213" height="8" as="geometry" />
        </mxCell>
        <mxCell id="zi-uQG6dIvawqaSI3qxy-105" value="+ getUUID(): UUID" style="text;strokeColor=none;fillColor=none;align=left;verticalAlign=top;spacingLeft=4;spacingRight=4;overflow=hidden;rotatable=0;points=[[0,0.5],[1,0.5]];portConstraint=eastwest;fontColor=#B09500;" parent="zi-uQG6dIvawqaSI3qxy-101" vertex="1">
          <mxGeometry y="112" width="213" height="26" as="geometry" />
        </mxCell>
        <mxCell id="zi-uQG6dIvawqaSI3qxy-108" value="+ getEditora(): String" style="text;strokeColor=none;fillColor=none;align=left;verticalAlign=top;spacingLeft=4;spacingRight=4;overflow=hidden;rotatable=0;points=[[0,0.5],[1,0.5]];portConstraint=eastwest;fontColor=#B09500;" parent="zi-uQG6dIvawqaSI3qxy-101" vertex="1">
          <mxGeometry y="138" width="213" height="26" as="geometry" />
        </mxCell>
        <mxCell id="zi-uQG6dIvawqaSI3qxy-109" value="+ setEditora(editora: String): void" style="text;strokeColor=none;fillColor=none;align=left;verticalAlign=top;spacingLeft=4;spacingRight=4;overflow=hidden;rotatable=0;points=[[0,0.5],[1,0.5]];portConstraint=eastwest;fontColor=#B09500;" parent="zi-uQG6dIvawqaSI3qxy-101" vertex="1">
          <mxGeometry y="164" width="213" height="26" as="geometry" />
        </mxCell>
        <mxCell id="zi-uQG6dIvawqaSI3qxy-35" value="+ getEdicao(): int" style="text;strokeColor=none;fillColor=none;align=left;verticalAlign=top;spacingLeft=4;spacingRight=4;overflow=hidden;rotatable=0;points=[[0,0.5],[1,0.5]];portConstraint=eastwest;fontColor=#B09500;" parent="zi-uQG6dIvawqaSI3qxy-101" vertex="1">
          <mxGeometry y="190" width="213" height="26" as="geometry" />
        </mxCell>
        <mxCell id="zi-uQG6dIvawqaSI3qxy-36" value="+ setEdicao(edicao: int): void" style="text;strokeColor=none;fillColor=none;align=left;verticalAlign=top;spacingLeft=4;spacingRight=4;overflow=hidden;rotatable=0;points=[[0,0.5],[1,0.5]];portConstraint=eastwest;fontColor=#B09500;" parent="zi-uQG6dIvawqaSI3qxy-101" vertex="1">
          <mxGeometry y="216" width="213" height="26" as="geometry" />
        </mxCell>
        <mxCell id="zi-uQG6dIvawqaSI3qxy-112" value="Extends" style="endArrow=block;endSize=16;endFill=0;html=1;rounded=0;fontColor=#B09500;strokeColor=#B09500;fillColor=#e3c800;" parent="1" source="zi-uQG6dIvawqaSI3qxy-101" target="zi-uQG6dIvawqaSI3qxy-20" edge="1">
          <mxGeometry width="160" relative="1" as="geometry">
            <mxPoint x="490" y="440" as="sourcePoint" />
            <mxPoint x="650" y="440" as="targetPoint" />
          </mxGeometry>
        </mxCell>
        <mxCell id="2tgwnuUrrpTe56F5n8lB-19" style="edgeStyle=orthogonalEdgeStyle;rounded=0;orthogonalLoop=1;jettySize=auto;html=1;fontColor=#B09500;fillColor=#e3c800;strokeColor=#B09500;" parent="1" source="zi-uQG6dIvawqaSI3qxy-113" target="2tgwnuUrrpTe56F5n8lB-15" edge="1">
          <mxGeometry relative="1" as="geometry">
            <Array as="points">
              <mxPoint x="985" y="396" />
            </Array>
          </mxGeometry>
        </mxCell>
        <mxCell id="zi-uQG6dIvawqaSI3qxy-113" value="Revista" style="swimlane;fontStyle=1;align=center;verticalAlign=top;childLayout=stackLayout;horizontal=1;startSize=26;horizontalStack=0;resizeParent=1;resizeParentMax=0;resizeLast=0;collapsible=1;marginBottom=0;fontColor=#000000;fillColor=#e3c800;strokeColor=#B09500;" parent="1" vertex="1">
          <mxGeometry x="1070" y="340" width="180" height="112" as="geometry" />
        </mxCell>
        <mxCell id="zi-uQG6dIvawqaSI3qxy-114" value="- nome: String" style="text;strokeColor=none;fillColor=none;align=left;verticalAlign=top;spacingLeft=4;spacingRight=4;overflow=hidden;rotatable=0;points=[[0,0.5],[1,0.5]];portConstraint=eastwest;fontColor=#B09500;" parent="zi-uQG6dIvawqaSI3qxy-113" vertex="1">
          <mxGeometry y="26" width="180" height="26" as="geometry" />
        </mxCell>
        <mxCell id="zi-uQG6dIvawqaSI3qxy-115" value="" style="line;strokeWidth=1;fillColor=#e3c800;align=left;verticalAlign=middle;spacingTop=-1;spacingLeft=3;spacingRight=3;rotatable=0;labelPosition=right;points=[];portConstraint=eastwest;fontColor=#000000;strokeColor=#B09500;" parent="zi-uQG6dIvawqaSI3qxy-113" vertex="1">
          <mxGeometry y="52" width="180" height="8" as="geometry" />
        </mxCell>
        <mxCell id="zi-uQG6dIvawqaSI3qxy-116" value="+ getNome(): String" style="text;strokeColor=none;fillColor=none;align=left;verticalAlign=top;spacingLeft=4;spacingRight=4;overflow=hidden;rotatable=0;points=[[0,0.5],[1,0.5]];portConstraint=eastwest;fontColor=#B09500;" parent="zi-uQG6dIvawqaSI3qxy-113" vertex="1">
          <mxGeometry y="60" width="180" height="26" as="geometry" />
        </mxCell>
        <mxCell id="2tgwnuUrrpTe56F5n8lB-20" value="+ setNome(nome: String): void" style="text;strokeColor=none;fillColor=none;align=left;verticalAlign=top;spacingLeft=4;spacingRight=4;overflow=hidden;rotatable=0;points=[[0,0.5],[1,0.5]];portConstraint=eastwest;fontColor=#B09500;" parent="zi-uQG6dIvawqaSI3qxy-113" vertex="1">
          <mxGeometry y="86" width="180" height="26" as="geometry" />
        </mxCell>
        <mxCell id="zi-uQG6dIvawqaSI3qxy-120" value="Extends" style="endArrow=block;endSize=16;endFill=0;html=1;rounded=0;fontColor=#B09500;strokeColor=#B09500;fillColor=#e3c800;" parent="1" source="zi-uQG6dIvawqaSI3qxy-101" target="zi-uQG6dIvawqaSI3qxy-113" edge="1">
          <mxGeometry width="160" relative="1" as="geometry">
            <mxPoint x="837" y="508.0091324200912" as="sourcePoint" />
            <mxPoint x="727.1295025728987" y="703" as="targetPoint" />
          </mxGeometry>
        </mxCell>
        <mxCell id="2tgwnuUrrpTe56F5n8lB-41" style="edgeStyle=orthogonalEdgeStyle;rounded=0;orthogonalLoop=1;jettySize=auto;html=1;fontColor=#B09500;fillColor=#e3c800;strokeColor=#B09500;" parent="1" source="zi-uQG6dIvawqaSI3qxy-121" target="zi-uQG6dIvawqaSI3qxy-101" edge="1">
          <mxGeometry relative="1" as="geometry">
            <Array as="points" />
          </mxGeometry>
        </mxCell>
        <mxCell id="zi-uQG6dIvawqaSI3qxy-121" value="possui" style="rhombus;whiteSpace=wrap;html=1;fontColor=#000000;fillColor=#e3c800;strokeColor=#B09500;" parent="1" vertex="1">
          <mxGeometry x="1280" y="48" width="90" height="68" as="geometry" />
        </mxCell>
        <mxCell id="2tgwnuUrrpTe56F5n8lB-4" value="Capitulo" style="swimlane;fontStyle=1;align=center;verticalAlign=top;childLayout=stackLayout;horizontal=1;startSize=26;horizontalStack=0;resizeParent=1;resizeParentMax=0;resizeLast=0;collapsible=1;marginBottom=0;fillColor=#e3c800;fontColor=#000000;strokeColor=#B09500;" parent="1" vertex="1">
          <mxGeometry x="810" y="594" width="350" height="242" as="geometry" />
        </mxCell>
        <mxCell id="2tgwnuUrrpTe56F5n8lB-5" value="- uuid: UUID" style="text;strokeColor=none;fillColor=none;align=left;verticalAlign=top;spacingLeft=4;spacingRight=4;overflow=hidden;rotatable=0;points=[[0,0.5],[1,0.5]];portConstraint=eastwest;fontColor=#B09500;" parent="2tgwnuUrrpTe56F5n8lB-4" vertex="1">
          <mxGeometry y="26" width="350" height="26" as="geometry" />
        </mxCell>
        <mxCell id="2tgwnuUrrpTe56F5n8lB-8" value="- assunto: String" style="text;strokeColor=none;fillColor=none;align=left;verticalAlign=top;spacingLeft=4;spacingRight=4;overflow=hidden;rotatable=0;points=[[0,0.5],[1,0.5]];portConstraint=eastwest;fontColor=#B09500;" parent="2tgwnuUrrpTe56F5n8lB-4" vertex="1">
          <mxGeometry y="52" width="350" height="26" as="geometry" />
        </mxCell>
        <mxCell id="2tgwnuUrrpTe56F5n8lB-9" value="- listaComentarios: List&lt;Comentario&gt;" style="text;strokeColor=none;fillColor=none;align=left;verticalAlign=top;spacingLeft=4;spacingRight=4;overflow=hidden;rotatable=0;points=[[0,0.5],[1,0.5]];portConstraint=eastwest;fontColor=#B09500;" parent="2tgwnuUrrpTe56F5n8lB-4" vertex="1">
          <mxGeometry y="78" width="350" height="26" as="geometry" />
        </mxCell>
        <mxCell id="2tgwnuUrrpTe56F5n8lB-6" value="" style="line;strokeWidth=1;fillColor=#e3c800;align=left;verticalAlign=middle;spacingTop=-1;spacingLeft=3;spacingRight=3;rotatable=0;labelPosition=right;points=[];portConstraint=eastwest;fontColor=#000000;strokeColor=#B09500;" parent="2tgwnuUrrpTe56F5n8lB-4" vertex="1">
          <mxGeometry y="104" width="350" height="8" as="geometry" />
        </mxCell>
        <mxCell id="2tgwnuUrrpTe56F5n8lB-7" value="+ getUUID(): UUID" style="text;strokeColor=none;fillColor=none;align=left;verticalAlign=top;spacingLeft=4;spacingRight=4;overflow=hidden;rotatable=0;points=[[0,0.5],[1,0.5]];portConstraint=eastwest;fontColor=#B09500;" parent="2tgwnuUrrpTe56F5n8lB-4" vertex="1">
          <mxGeometry y="112" width="350" height="26" as="geometry" />
        </mxCell>
        <mxCell id="2tgwnuUrrpTe56F5n8lB-10" value="+ getAssunto(): String" style="text;strokeColor=none;fillColor=none;align=left;verticalAlign=top;spacingLeft=4;spacingRight=4;overflow=hidden;rotatable=0;points=[[0,0.5],[1,0.5]];portConstraint=eastwest;fontColor=#B09500;" parent="2tgwnuUrrpTe56F5n8lB-4" vertex="1">
          <mxGeometry y="138" width="350" height="26" as="geometry" />
        </mxCell>
        <mxCell id="2tgwnuUrrpTe56F5n8lB-11" value="+ setAssunto(assunto:String): void" style="text;strokeColor=none;fillColor=none;align=left;verticalAlign=top;spacingLeft=4;spacingRight=4;overflow=hidden;rotatable=0;points=[[0,0.5],[1,0.5]];portConstraint=eastwest;fontColor=#B09500;" parent="2tgwnuUrrpTe56F5n8lB-4" vertex="1">
          <mxGeometry y="164" width="350" height="26" as="geometry" />
        </mxCell>
        <mxCell id="2tgwnuUrrpTe56F5n8lB-12" value="+ getListaComentarios(): List&lt;Comentario&gt;" style="text;strokeColor=none;fillColor=none;align=left;verticalAlign=top;spacingLeft=4;spacingRight=4;overflow=hidden;rotatable=0;points=[[0,0.5],[1,0.5]];portConstraint=eastwest;fontColor=#B09500;" parent="2tgwnuUrrpTe56F5n8lB-4" vertex="1">
          <mxGeometry y="190" width="350" height="26" as="geometry" />
        </mxCell>
        <mxCell id="2tgwnuUrrpTe56F5n8lB-13" value="+ setListaComentarios(listaComentarios:List&lt;Comentario): void" style="text;strokeColor=none;fillColor=none;align=left;verticalAlign=top;spacingLeft=4;spacingRight=4;overflow=hidden;rotatable=0;points=[[0,0.5],[1,0.5]];portConstraint=eastwest;fontColor=#B09500;" parent="2tgwnuUrrpTe56F5n8lB-4" vertex="1">
          <mxGeometry y="216" width="350" height="26" as="geometry" />
        </mxCell>
        <mxCell id="2tgwnuUrrpTe56F5n8lB-17" style="edgeStyle=orthogonalEdgeStyle;rounded=0;orthogonalLoop=1;jettySize=auto;html=1;fontColor=#B09500;fillColor=#e3c800;strokeColor=#B09500;" parent="1" source="2tgwnuUrrpTe56F5n8lB-15" target="2tgwnuUrrpTe56F5n8lB-4" edge="1">
          <mxGeometry relative="1" as="geometry" />
        </mxCell>
        <mxCell id="2tgwnuUrrpTe56F5n8lB-15" value="possuem" style="rhombus;whiteSpace=wrap;html=1;fontColor=#000000;fillColor=#e3c800;strokeColor=#B09500;" parent="1" vertex="1">
          <mxGeometry x="945" y="440" width="80" height="80" as="geometry" />
        </mxCell>
        <mxCell id="2tgwnuUrrpTe56F5n8lB-30" style="edgeStyle=orthogonalEdgeStyle;rounded=0;orthogonalLoop=1;jettySize=auto;html=1;fontColor=#B09500;fillColor=#e3c800;strokeColor=#B09500;" parent="1" source="2tgwnuUrrpTe56F5n8lB-21" target="2tgwnuUrrpTe56F5n8lB-23" edge="1">
          <mxGeometry relative="1" as="geometry">
            <Array as="points">
              <mxPoint x="670" y="585" />
              <mxPoint x="670" y="1014" />
            </Array>
          </mxGeometry>
        </mxCell>
        <mxCell id="2tgwnuUrrpTe56F5n8lB-21" value="faz" style="rhombus;whiteSpace=wrap;html=1;fontColor=#000000;fillColor=#e3c800;strokeColor=#B09500;" parent="1" vertex="1">
          <mxGeometry x="720" y="545" width="80" height="80" as="geometry" />
        </mxCell>
        <mxCell id="CDbKcWBUSRxkuX1skShz-2" style="edgeStyle=orthogonalEdgeStyle;rounded=0;orthogonalLoop=1;jettySize=auto;html=1;strokeColor=#B09500;" edge="1" parent="1" source="2tgwnuUrrpTe56F5n8lB-23" target="CDbKcWBUSRxkuX1skShz-1">
          <mxGeometry relative="1" as="geometry">
            <Array as="points">
              <mxPoint x="728" y="930" />
            </Array>
          </mxGeometry>
        </mxCell>
        <mxCell id="2tgwnuUrrpTe56F5n8lB-23" value="Anotacao" style="swimlane;fontStyle=1;align=center;verticalAlign=top;childLayout=stackLayout;horizontal=1;startSize=26;horizontalStack=0;resizeParent=1;resizeParentMax=0;resizeLast=0;collapsible=1;marginBottom=0;fontColor=#000000;fillColor=#e3c800;strokeColor=#B09500;" parent="1" vertex="1">
          <mxGeometry x="835" y="880" width="215" height="268" as="geometry" />
        </mxCell>
        <mxCell id="2tgwnuUrrpTe56F5n8lB-24" value="- uuid: UUID" style="text;strokeColor=none;fillColor=none;align=left;verticalAlign=top;spacingLeft=4;spacingRight=4;overflow=hidden;rotatable=0;points=[[0,0.5],[1,0.5]];portConstraint=eastwest;fontColor=#B09500;" parent="2tgwnuUrrpTe56F5n8lB-23" vertex="1">
          <mxGeometry y="26" width="215" height="26" as="geometry" />
        </mxCell>
        <mxCell id="2tgwnuUrrpTe56F5n8lB-27" value="- anotacao: String" style="text;strokeColor=none;fillColor=none;align=left;verticalAlign=top;spacingLeft=4;spacingRight=4;overflow=hidden;rotatable=0;points=[[0,0.5],[1,0.5]];portConstraint=eastwest;fontColor=#B09500;" parent="2tgwnuUrrpTe56F5n8lB-23" vertex="1">
          <mxGeometry y="52" width="215" height="26" as="geometry" />
        </mxCell>
        <mxCell id="2tgwnuUrrpTe56F5n8lB-28" value="- usuario: Usuario" style="text;strokeColor=none;fillColor=none;align=left;verticalAlign=top;spacingLeft=4;spacingRight=4;overflow=hidden;rotatable=0;points=[[0,0.5],[1,0.5]];portConstraint=eastwest;fontColor=#B09500;" parent="2tgwnuUrrpTe56F5n8lB-23" vertex="1">
          <mxGeometry y="78" width="215" height="26" as="geometry" />
        </mxCell>
        <mxCell id="2tgwnuUrrpTe56F5n8lB-29" value="- capitulo: Capitulo" style="text;strokeColor=none;fillColor=none;align=left;verticalAlign=top;spacingLeft=4;spacingRight=4;overflow=hidden;rotatable=0;points=[[0,0.5],[1,0.5]];portConstraint=eastwest;fontColor=#B09500;" parent="2tgwnuUrrpTe56F5n8lB-23" vertex="1">
          <mxGeometry y="104" width="215" height="26" as="geometry" />
        </mxCell>
        <mxCell id="2tgwnuUrrpTe56F5n8lB-25" value="" style="line;strokeWidth=1;fillColor=#e3c800;align=left;verticalAlign=middle;spacingTop=-1;spacingLeft=3;spacingRight=3;rotatable=0;labelPosition=right;points=[];portConstraint=eastwest;fontColor=#000000;strokeColor=#B09500;" parent="2tgwnuUrrpTe56F5n8lB-23" vertex="1">
          <mxGeometry y="130" width="215" height="8" as="geometry" />
        </mxCell>
        <mxCell id="2tgwnuUrrpTe56F5n8lB-26" value="+ getUUID(): UUID" style="text;strokeColor=none;fillColor=none;align=left;verticalAlign=top;spacingLeft=4;spacingRight=4;overflow=hidden;rotatable=0;points=[[0,0.5],[1,0.5]];portConstraint=eastwest;fontColor=#B09500;" parent="2tgwnuUrrpTe56F5n8lB-23" vertex="1">
          <mxGeometry y="138" width="215" height="26" as="geometry" />
        </mxCell>
        <mxCell id="2tgwnuUrrpTe56F5n8lB-31" value="+ getAnotacao(): String" style="text;strokeColor=none;fillColor=none;align=left;verticalAlign=top;spacingLeft=4;spacingRight=4;overflow=hidden;rotatable=0;points=[[0,0.5],[1,0.5]];portConstraint=eastwest;fontColor=#B09500;" parent="2tgwnuUrrpTe56F5n8lB-23" vertex="1">
          <mxGeometry y="164" width="215" height="26" as="geometry" />
        </mxCell>
        <mxCell id="2tgwnuUrrpTe56F5n8lB-32" value="+ setAnotacao(anotacao:String): void" style="text;strokeColor=none;fillColor=none;align=left;verticalAlign=top;spacingLeft=4;spacingRight=4;overflow=hidden;rotatable=0;points=[[0,0.5],[1,0.5]];portConstraint=eastwest;fontColor=#B09500;" parent="2tgwnuUrrpTe56F5n8lB-23" vertex="1">
          <mxGeometry y="190" width="215" height="26" as="geometry" />
        </mxCell>
        <mxCell id="2tgwnuUrrpTe56F5n8lB-33" value="+ getUsuario(): Usuario" style="text;strokeColor=none;fillColor=none;align=left;verticalAlign=top;spacingLeft=4;spacingRight=4;overflow=hidden;rotatable=0;points=[[0,0.5],[1,0.5]];portConstraint=eastwest;fontColor=#B09500;" parent="2tgwnuUrrpTe56F5n8lB-23" vertex="1">
          <mxGeometry y="216" width="215" height="26" as="geometry" />
        </mxCell>
        <mxCell id="2tgwnuUrrpTe56F5n8lB-35" value="+ getCapitulo(): Capitulo" style="text;strokeColor=none;fillColor=none;align=left;verticalAlign=top;spacingLeft=4;spacingRight=4;overflow=hidden;rotatable=0;points=[[0,0.5],[1,0.5]];portConstraint=eastwest;fontColor=#B09500;" parent="2tgwnuUrrpTe56F5n8lB-23" vertex="1">
          <mxGeometry y="242" width="215" height="26" as="geometry" />
        </mxCell>
        <mxCell id="CDbKcWBUSRxkuX1skShz-3" value="" style="edgeStyle=orthogonalEdgeStyle;rounded=0;orthogonalLoop=1;jettySize=auto;html=1;strokeColor=#B09500;" edge="1" parent="1" source="CDbKcWBUSRxkuX1skShz-1" target="2tgwnuUrrpTe56F5n8lB-10">
          <mxGeometry relative="1" as="geometry" />
        </mxCell>
        <mxCell id="CDbKcWBUSRxkuX1skShz-1" value="refere" style="rhombus;whiteSpace=wrap;html=1;fillColor=#e3c800;fontColor=#000000;strokeColor=#B09500;" vertex="1" parent="1">
          <mxGeometry x="687.5" y="705" width="80" height="80" as="geometry" />
        </mxCell>
      </root>
    </mxGraphModel>
  </diagram>
</mxfile>
